<?xml version="1.0" encoding="UTF-8" standalone="no"?>
<svg
   xmlns:dc="http://purl.org/dc/elements/1.1/"
   xmlns:cc="http://creativecommons.org/ns#"
   xmlns:rdf="http://www.w3.org/1999/02/22-rdf-syntax-ns#"
   xmlns:svg="http://www.w3.org/2000/svg"
   xmlns="http://www.w3.org/2000/svg"
   xmlns:sodipodi="http://sodipodi.sourceforge.net/DTD/sodipodi-0.dtd"
   xmlns:inkscape="http://www.inkscape.org/namespaces/inkscape"
   width="89.985153"
   height="90.000923"
   viewBox="0 0 253.95815 254.0026"
   version="1.1"
   id="svg2"
   inkscape:version="0.48.5 r10040"
   sodipodi:docname="MUTCD_W12-2 (Live Tile).svg">
  <metadata
     id="metadata62">
    <rdf:RDF>
      <cc:Work
         rdf:about="">
        <dc:format>image/svg+xml</dc:format>
        <dc:type
           rdf:resource="http://purl.org/dc/dcmitype/StillImage" />
        <dc:title></dc:title>
        <cc:license
           rdf:resource="http://creativecommons.org/licenses/publicdomain/" />
      </cc:Work>
      <cc:License
         rdf:about="http://creativecommons.org/licenses/publicdomain/">
        <cc:permits
           rdf:resource="http://creativecommons.org/ns#Reproduction" />
        <cc:permits
           rdf:resource="http://creativecommons.org/ns#Distribution" />
        <cc:permits
           rdf:resource="http://creativecommons.org/ns#DerivativeWorks" />
      </cc:License>
    </rdf:RDF>
  </metadata>
  <defs
     id="defs60" />
  <sodipodi:namedview
     pagecolor="#ffffff"
     bordercolor="#666666"
     borderopacity="1"
     objecttolerance="10"
     gridtolerance="10"
     guidetolerance="10"
     inkscape:pageopacity="0"
     inkscape:pageshadow="2"
     inkscape:window-width="1600"
     inkscape:window-height="1138"
     id="namedview58"
     showgrid="false"
     fit-margin-top="0"
     fit-margin-left="0"
     fit-margin-right="0"
     fit-margin-bottom="0"
     inkscape:zoom="5.6568543"
     inkscape:cx="7.0401078"
     inkscape:cy="34.584827"
     inkscape:window-x="-8"
     inkscape:window-y="-8"
     inkscape:window-maximized="1"
     inkscape:current-layer="svg2" />
  <!-- draw the bicycle -->
  <!-- RIGHT -->
  <!-- LANE -->
  <!-- ONLY -->
  <path
     style="fill:#ffffff;fill-opacity:1;fill-rule:nonzero;stroke:none"
     d="M 45 0 C 43.942188 0 42.866875 0.4150041 42.0625 1.21875 L 1.1875 42.09375 C -0.40124771 43.681258 -0.40000047 46.318742 1.1875 47.90625 L 42.0625 88.78125 C 43.67125 90.390017 46.2975 90.390017 47.90625 88.78125 L 88.78125 47.90625 C 90.39 46.297483 90.39 43.701277 88.78125 42.09375 L 47.90625 1.21875 C 47.101875 0.4150041 46.057812 0 45 0 z M 45 1.15625 C 45.769684 1.1565645 46.514377 1.4531418 47.09375 2.03125 L 87.96875 42.875 C 89.128747 44.035011 89.123747 45.963752 87.96875 47.125 L 47.09375 87.96875 C 45.933757 89.125002 44.036248 89.126242 42.875 87.96875 L 2 47.125 C 0.84499905 45.963752 0.83999945 44.035011 2 42.875 L 42.875 2.03125 C 43.454377 1.451884 44.230312 1.1559355 45 1.15625 z M 45 2.75 C 44.63578 2.7498406 44.269376 2.9081103 44 3.1875 L 3.15625 44 C 2.5987497 44.53876 2.5987497 45.46 3.15625 46 L 44 86.8125 C 44.537502 87.372484 45.430001 87.371244 45.96875 86.8125 L 86.8125 46 C 87.37 45.46124 87.37 44.53876 86.8125 44 L 45.96875 3.1875 C 45.69875 2.9087481 45.364216 2.7501594 45 2.75 z M 44.78125 7.90625 L 61.5 22.875 C 61.771251 23.1 61.793749 23.32375 61.75 23.59375 C 61.75 24.26875 61.176251 24.875 60.5 24.875 C 60.412502 24.875 60.348749 24.8575 60.125 24.8125 L 50.28125 22.5625 L 50.28125 31.75 L 39.3125 31.75 L 39.3125 22.71875 L 29.53125 24.71875 C 29.21625 24.80875 29.1025 24.875 28.96875 24.875 C 28.33875 24.875 27.6875 24.2375 27.6875 23.5625 C 27.6875 23.2925 27.685 23.11375 28 22.84375 L 44.78125 7.90625 z M 39.3125 58.25 L 50.28125 58.25 L 50.28125 67.4375 L 60.125 65.1875 C 60.348749 65.141249 60.412502 65.09375 60.5 65.09375 C 61.176251 65.09375 61.75 65.730003 61.75 66.40625 C 61.793749 66.673752 61.771251 66.898749 61.5 67.125 L 44.78125 82.09375 L 28 67.15625 C 27.685 66.883748 27.6875 66.673752 27.6875 66.40625 C 27.6875 65.773752 28.33875 65.125 28.96875 65.125 C 29.1025 65.125 29.21625 65.175001 29.53125 65.21875 L 39.3125 67.3125 L 39.3125 58.25 z "
     id="bg"
     transform="matrix(2.8222228,0,0,2.8222228,0,-2.8168122e-5)" />
</svg>
